<svg width="24" height="24" viewBox="0 0 24 24" fill="none" xmlns="http://www.w3.org/2000/svg">
<path d="M12 6C13.1046 6 14 5.10457 14 4C14 2.89543 13.1046 2 12 2C10.8954 2 10 2.89543 10 4C10 5.10457 10.8954 6 12 6Z" fill="#27272A"/>
<path opacity="0.4" d="M12 22C13.1046 22 14 21.1046 14 20C14 18.8954 13.1046 18 12 18C10.8954 18 10 18.8954 10 20C10 21.1046 10.8954 22 12 22Z" fill="#27272A"/>
<path opacity="0.6" d="M4 14C5.10457 14 6 13.1046 6 12C6 10.8954 5.10457 10 4 10C2.89543 10 2 10.8954 2 12C2 13.1046 2.89543 14 4 14Z" fill="#27272A"/>
<path opacity="0.4" d="M20 14C21.1046 14 22 13.1046 22 12C22 10.8954 21.1046 10 20 10C18.8954 10 18 10.8954 18 12C18 13.1046 18.8954 14 20 14Z" fill="#27272A"/>
<path opacity="0.4" d="M17.6573 8.34265C18.7619 8.34265 19.6573 7.44722 19.6573 6.34265C19.6573 5.23808 18.7619 4.34265 17.6573 4.34265C16.5528 4.34265 15.6573 5.23808 15.6573 6.34265C15.6573 7.44722 16.5528 8.34265 17.6573 8.34265Z" fill="#27272A"/>
<path opacity="0.4" d="M6.34265 19.6573C7.44722 19.6573 8.34265 18.7619 8.34265 17.6573C8.34265 16.5528 7.44722 15.6573 6.34265 15.6573C5.23808 15.6573 4.34265 16.5528 4.34265 17.6573C4.34265 18.7619 5.23808 19.6573 6.34265 19.6573Z" fill="#27272A"/>
<path opacity="0.8" d="M6.34265 8.34265C7.44722 8.34265 8.34265 7.44722 8.34265 6.34265C8.34265 5.23808 7.44722 4.34265 6.34265 4.34265C5.23808 4.34265 4.34265 5.23808 4.34265 6.34265C4.34265 7.44722 5.23808 8.34265 6.34265 8.34265Z" fill="#27272A"/>
<path opacity="0.4" d="M17.6573 19.6573C18.7619 19.6573 19.6573 18.7619 19.6573 17.6573C19.6573 16.5528 18.7619 15.6573 17.6573 15.6573C16.5528 15.6573 15.6573 16.5528 15.6573 17.6573C15.6573 18.7619 16.5528 19.6573 17.6573 19.6573Z" fill="#27272A"/>
</svg>
