<svg width="20" height="20" viewBox="0 0 20 20" fill="none" xmlns="http://www.w3.org/2000/svg">
<path fill-rule="evenodd" clip-rule="evenodd" d="M5 0C5.55228 0 6 0.447715 6 1V2H14V1C14 0.447715 14.4477 0 15 0C15.5523 0 16 0.447715 16 1V2H17.3636C18.8466 2 20 3.22913 20 4.68421V8V17.3158C20 18.7709 18.8466 20 17.3636 20H2.63636C1.15337 20 0 18.7709 0 17.3158V8V4.68421C0 3.22913 1.15337 2 2.63636 2H4V1C4 0.447715 4.44772 0 5 0ZM14 4V5C14 5.55228 14.4477 6 15 6C15.5523 6 16 5.55228 16 5V4H17.3636C17.6881 4 18 4.27897 18 4.68421V7H2V4.68421C2 4.27897 2.31188 4 2.63636 4H4V5C4 5.55228 4.44772 6 5 6C5.55228 6 6 5.55228 6 5V4H14ZM18 9V17.3158C18 17.721 17.6881 18 17.3636 18H2.63636C2.31188 18 2 17.721 2 17.3158V9H18Z" fill="#27272A"/>
</svg>
